<?xml version="1.0" encoding="UTF-8"?>
<!DOCTYPE svg PUBLIC "-//W3C//DTD SVG 1.1//EN" "http://www.w3.org/Graphics/SVG/1.1/DTD/svg11.dtd">
<!-- Creator: CorelDRAW X6 -->
<svg xmlns="http://www.w3.org/2000/svg" xml:space="preserve" width="120mm" height="115mm" version="1.1" style="shape-rendering:geometricPrecision; text-rendering:geometricPrecision; image-rendering:optimizeQuality; fill-rule:evenodd; clip-rule:evenodd"
viewBox="0 0 12000 11500"
 xmlns:xlink="http://www.w3.org/1999/xlink">
 <defs>
  <style type="text/css">
   <![CDATA[
    .str0 {stroke:#0A7787;stroke-width:250;stroke-linecap:round;stroke-linejoin:round}
    .fil0 {fill:none}
   ]]>
  </style>
 </defs>
 <g id="Слой_x0020_1">
  <metadata id="CorelCorpID_0Corel-Layer"/>
  <path class="fil0 str0" d="M10990 9752c-253,-3076 -1577,-5970 -3971,-8682 -2747,2083 -4757,4887 -6029,8412 750,202 2039,75 2103,-191 71,-270 -523,-451 -1831,-523 1322,132 1915,-45 1967,-312 38,-219 -532,-383 -1700,-325"/>
  <path class="fil0 str0" d="M4262 3690c-122,296 -160,493 -113,592 259,-32 560,-182 903,-451 -66,201 -11,453 162,758 128,12 487,-296 1119,-866 -43,515 164,919 632,1245 156,-214 300,-611 433,-1191 230,322 393,521 487,596 82,-113 130,-270 144,-469 144,168 217,253 217,253 71,-116 95,-236 72,-361 565,475 725,828 808,775 19,-12 71,-142 124,-390"/>
  <path class="fil0 str0" d="M3601 8301c11,222 466,275 501,36 25,-211 -512,-295 -501,-36z"/>
  <path class="fil0 str0" d="M3697 8797c0,263 -46,504 -135,722 -7,22 -2,39 17,50"/>
  <path class="fil0 str0" d="M4777 8743c-826,77 -1036,830 -68,772"/>
  <path class="fil0 str0" d="M4777 8743c175,1219 -1125,1782 -1852,1304"/>
  <path class="fil0 str0" d="M8934 9726c343,-214 629,-755 857,-1625 164,661 290,1022 379,1083 209,-208 423,-464 641,-769"/>
  <path class="fil0 str0" d="M8374 9654c-69,-49 -21,-548 144,-1498"/>
  <path class="fil0 str0" d="M8013 8102c67,56 401,74 1002,54"/>
  <path class="fil0 str0" d="M6849 9699c166,-971 206,-1230 208,-1417 1265,37 975,1114 -153,866"/>
  <path class="fil0 str0" d="M6967 9162c460,568 555,759 732,838"/>
  <path class="fil0 str0" d="M5159 9607c197,-165 528,-734 993,-1706 220,776 295,1399 226,1868"/>
  <path class="fil0 str0" d="M5411 9174c181,69 507,40 976,-87"/>
  <path class="fil0 str0" d="M4473 7793c337,-1637 505,-2455 505,-2455"/>
  <path class="fil0 str0" d="M4952 5464c1522,-7 1365,2254 -451,2192 -1714,-139 -1035,-2044 451,-2192z"/>
  <path class="fil0 str0" d="M6434 6827c-118,1201 2228,1426 2472,29 260,-1663 -2382,-1639 -2472,-29z"/>
  <path class="fil0 str0" d="M6808 6721c-2,79 -4,107 -14,158"/>
  <path class="fil0 str0" d="M8595 6694c-3,69 -7,94 1,163"/>
  <path class="fil0 str0" d="M6822 6802c791,5 1376,-4 1758,-24"/>
 </g>
</svg>
