<?xml version="1.0" encoding="UTF-8" standalone="no"?>
<!-- Created with Inkscape (http://www.inkscape.org/) -->

<svg
   xmlns:dc="http://purl.org/dc/elements/1.1/"
   xmlns:cc="http://creativecommons.org/ns#"
   xmlns:rdf="http://www.w3.org/1999/02/22-rdf-syntax-ns#"
   xmlns:svg="http://www.w3.org/2000/svg"
   xmlns="http://www.w3.org/2000/svg"
   xmlns:sodipodi="http://sodipodi.sourceforge.net/DTD/sodipodi-0.dtd"
   xmlns:inkscape="http://www.inkscape.org/namespaces/inkscape"
   width="100mm"
   height="100mm"
   viewBox="0 0 354.33071 354.33071"
   id="svg2"
   version="1.1"
   inkscape:version="0.91 r13725"
   sodipodi:docname="logo.svg"
   inkscape:export-filename="C:\Users\fdm\path4193.png"
   inkscape:export-xdpi="90"
   inkscape:export-ydpi="90">
  <defs
     id="defs4" />
  <sodipodi:namedview
     id="base"
     pagecolor="#ffffff"
     bordercolor="#666666"
     borderopacity="1.0"
     inkscape:pageopacity="0.0"
     inkscape:pageshadow="2"
     inkscape:zoom="0.7"
     inkscape:cx="191.90338"
     inkscape:cy="250.1448"
     inkscape:document-units="px"
     inkscape:current-layer="layer1"
     showgrid="false"
     inkscape:window-width="1280"
     inkscape:window-height="657"
     inkscape:window-x="-8"
     inkscape:window-y="-8"
     inkscape:window-maximized="1" />
  <metadata
     id="metadata7">
    <rdf:RDF>
      <cc:Work
         rdf:about="">
        <dc:format>image/svg+xml</dc:format>
        <dc:type
           rdf:resource="http://purl.org/dc/dcmitype/StillImage" />
        <dc:title></dc:title>
      </cc:Work>
    </rdf:RDF>
  </metadata>
  <g
     inkscape:label="Layer 1"
     inkscape:groupmode="layer"
     id="layer1"
     transform="translate(0,-698.0315)">
    <text
       xml:space="preserve"
       style="font-style:normal;font-variant:normal;font-weight:normal;font-stretch:normal;font-size:612.53808594px;line-height:125%;font-family:Gabriola;-inkscape-font-specification:Gabriola;letter-spacing:0px;word-spacing:0px;fill:#000000;fill-opacity:1;stroke:none;stroke-width:1px;stroke-linecap:butt;stroke-linejoin:miter;stroke-opacity:1"
       x="16.375389"
       y="1121.4747"
       id="text4140"
       sodipodi:linespacing="125%"
       transform="scale(1.0883938,0.9187851)"><tspan
         sodipodi:role="line"
         id="tspan4142"
         x="16.375389"
         y="1121.4747">A</tspan></text>
    <circle
       style="opacity:0.98999999;fill:none;fill-opacity:1;stroke:#000000;stroke-width:10;stroke-miterlimit:4;stroke-dasharray:none;stroke-opacity:1"
       id="path4146"
       cx="165.71429"
       cy="896.64789"
       r="38.67857" />
    <ellipse
       style="opacity:0.98999999;fill:none;fill-opacity:1;stroke:#000000;stroke-width:10;stroke-miterlimit:4;stroke-dasharray:none;stroke-opacity:1"
       id="path4146-7"
       cx="167.42511"
       cy="895.21936"
       rx="105.07221"
       ry="106.21852" />
    <path
       style="opacity:0.98999999;fill:#f2f2f2;fill-opacity:1;stroke:none;stroke-width:10.102;stroke-miterlimit:4;stroke-dasharray:none;stroke-opacity:1"
       d="m 154.8783,229.8502 c -7.74386,-2.69135 -14.76068,-8.8206 -18.542,-16.1966 -0.9095,-1.77411 -1.31439,-3.42754 -0.89974,-3.67427 1.49265,-0.88818 61.86799,-1.91191 61.85866,-1.04888 -0.025,2.31894 -6.42307,11.64503 -10.21645,14.89203 -8.385,7.17725 -21.71383,9.67232 -32.20047,6.02772 z"
       id="path4191"
       inkscape:connector-curvature="0"
       transform="translate(0,698.0315)" />
    <path
       style="opacity:0.98999999;fill:#f2f2f2;fill-opacity:1;stroke:none;stroke-width:10.10200024;stroke-miterlimit:4;stroke-dasharray:none;stroke-opacity:1"
       d="m 134.92696,186.59104 c 2.30175,-6.75525 10.06984,-14.77122 17.58104,-18.14205 5.46879,-2.45425 7.16893,-2.73916 14.43658,-2.4193 9.66444,0.42534 15.4702,2.82985 21.90057,9.0703 3.32161,3.22351 9.72248,13.86227 8.77152,14.57896 -0.11602,0.0874 -14.62392,0.47103 -32.23977,0.85242 l -32.02882,0.69343 1.57888,-4.63376 z"
       id="path4193"
       inkscape:connector-curvature="0"
       transform="translate(0,698.0315)" />
    <path
       style="opacity:0.98999999;fill:#f2f2f2;fill-opacity:1;stroke:none;stroke-width:10.10200024;stroke-miterlimit:4;stroke-dasharray:none;stroke-opacity:1"
       d="m 120.44217,173.7017 c 4.55025,-9.58027 14.86442,-30.60407 22.92039,-46.71955 12.60071,-25.20699 15.03806,-29.434933 17.4446,-30.260341 3.49393,-1.198365 24.28587,0.758428 31.79015,2.991868 3.95951,1.178433 5.41908,2.138893 5.79304,3.812083 0.27495,1.2302 3.48577,15.64651 7.13515,32.03623 3.64938,16.38973 7.97469,35.1141 9.61179,41.60971 1.6371,6.49561 2.97656,12.06408 2.97656,12.37437 0,0.31029 -2.00326,0.56416 -4.45167,0.56416 l -4.45167,0 -1.76206,-5.60204 c -3.57946,-11.38003 -14.02131,-22.39967 -25.35293,-26.75584 -8.77829,-3.37459 -20.5221,-3.81643 -29.44025,-1.10763 -13.5615,4.11919 -25.21614,15.78635 -29.09382,29.12511 l -1.55545,5.35055 -4.9185,0 -4.9185,0 8.27317,-17.41868 z"
       id="path4195"
       inkscape:connector-curvature="0"
       transform="translate(0,698.0315)" />
    <path
       style="opacity:0.98999999;fill:#f2f2f2;fill-opacity:1;stroke:none;stroke-width:10.10200024;stroke-miterlimit:4;stroke-dasharray:none;stroke-opacity:1"
       d="M 154.95106,297.14408 C 140.28143,295.22572 126.491,290.0422 113.4612,281.54895 104.48709,275.69933 92.366812,264.31678 87.531177,257.19722 l -2.798373,-4.12008 9.01594,-20.62431 9.015936,-20.62432 5.39919,-0.65771 c 2.96955,-0.36175 7.44475,-0.69367 9.94487,-0.73761 l 4.54569,-0.0799 3.29525,7.01522 c 12.41121,26.42205 47.22777,33.52132 69.31021,14.13268 4.52531,-3.97327 8.3961,-9.75237 11.25844,-16.80887 2.58341,-6.36884 3.71028,-7.04725 12.10059,-7.28492 l 4.04061,-0.11446 4.93818,18.43023 c 2.716,10.13662 6.50148,23.37732 8.41217,29.42377 l 3.47399,10.99356 -4.37156,4.50379 c -18.91955,19.49184 -51.46862,30.25195 -80.16125,26.49979 z"
       id="path4197"
       inkscape:connector-curvature="0"
       transform="translate(0,698.0315)" />
    <path
       style="opacity:0.98999999;fill:#f2f2f2;fill-opacity:1;stroke:none;stroke-width:10.10200024;stroke-miterlimit:4;stroke-dasharray:none;stroke-opacity:1"
       d="m 68.936495,212.58612 c -1.185747,-8.29489 -0.863503,-26.97865 0.588006,-34.09264 5.718178,-28.02539 21.525297,-51.28011 45.241489,-66.55722 7.42322,-4.78177 16.40111,-9.1095 17.21313,-8.29748 0.24885,0.24885 -10.15693,20.02679 -23.12394,43.95098 l -23.576393,43.49853 -3.855864,0.66107 c -2.120726,0.36359 -4.507211,1.31241 -5.303301,2.1085 -1.888,1.888 -1.847717,6.34304 0.08227,9.09848 1.417627,2.02394 1.262813,2.66951 -2.113006,8.81106 -2.00349,3.64491 -3.79557,6.6271 -3.982398,6.6271 -0.186829,0 -0.713324,-2.61377 -1.16999,-5.80838 z"
       id="path4199"
       inkscape:connector-curvature="0"
       transform="translate(0,698.0315)" />
    <path
       style="opacity:0.98999999;fill:#f2f2f2;fill-opacity:1;stroke:none;stroke-width:10.10200024;stroke-miterlimit:4;stroke-dasharray:none;stroke-opacity:1"
       d="m 257.64902,176.16196 c -4.52124,-18.22764 -8.22044,-33.78411 -8.22044,-34.56995 0,-4.58038 10.24434,16.24606 13.67954,27.81009 2.22947,7.50515 2.79339,11.77914 3.23208,24.4962 0.29228,8.47266 0.30593,15.40483 0.0303,15.40483 -0.27559,0 -4.20028,-14.91353 -8.72152,-33.14117 z"
       id="path4201"
       inkscape:connector-curvature="0"
       transform="translate(0,698.0315)" />
  </g>
</svg>
